<svg xmlns="http://www.w3.org/2000/svg" viewBox="0 0 64 64" fill="none">
  <!-- Background circle -->
  <circle cx="32" cy="32" r="32" fill="#0F6934"/>
  <!-- Tooth shape (simplified) -->
  <path d="M22 18C22 18 18 19 17 24C16 29 17 34 19 38C20.5 41.5 21 46 22.5 46C24 46 24.5 43 25.5 40C26.5 37 27.5 36 32 36C36.5 36 37.5 37 38.5 40C39.5 43 40 46 41.5 46C43 46 43.5 41.5 45 38C47 34 48 29 47 24C46 19 42 18 42 18C42 18 39 17 36.5 17.5C35 17.8 33.5 18 32 18C30.5 18 29 17.8 27.5 17.5C25 17 22 18 22 18Z" fill="white"/>
  <!-- Tooth highlight -->
  <path d="M25 20C24 20.5 23 22 22.5 24C22.2 25.5 22.5 27 23 28C23.5 27 24 25.5 25 24C26 22.5 27.5 21.5 29 21C27.5 20.5 26 19.5 25 20Z" fill="white" opacity="0.4"/>
</svg>
